<svg xmlns="http://www.w3.org/2000/svg" fill="none" viewBox="0 0 568 395">
  <defs>
    <radialGradient id="a" cx="0" cy="0" r="1" gradientTransform="matrix(196.26088 -598.03526 451.32271 148.11333 213 564)" gradientUnits="userSpaceOnUse">
      <stop stop-color="#F12711"/>
      <stop offset="1" stop-color="#F5AF19"/>
    </radialGradient>
    <radialGradient id="b" cx="0" cy="0" r="1" gradientTransform="matrix(196.26088 -598.03526 451.32271 148.11333 213 564)" gradientUnits="userSpaceOnUse">
      <stop stop-color="#F12711"/>
      <stop offset="1" stop-color="#F5AF19"/>
    </radialGradient>
    <radialGradient id="c" cx="0" cy="0" r="1" gradientTransform="matrix(196.26088 -598.03526 451.32271 148.11333 213 564)" gradientUnits="userSpaceOnUse">
      <stop stop-color="#F12711"/>
      <stop offset="1" stop-color="#F5AF19"/>
    </radialGradient>
  </defs>
  <path fill="url(#a)" d="M427 154c4-48 49-70 72-76-8 10-11 45 39 101 63 70 26 232-101 214-128-17-115-128-105-166 10-37 48-101 49-53 1 39 10 46 20 49 3-6 22-22 26-69Z"/>
  <path fill="url(#b)" d="M101 137c4-47 50-70 72-75-8 10-11 45 39 101 63 70 26 232-101 214C-17 359-3 249 6 211c10-38 48-101 49-53 2 39 10 46 20 49 3-6 22-22 26-70Z"/>
  <path fill="url(#c)" d="M264 88c5-55 58-81 84-87-9 11-13 51 45 116 73 82 30 270-118 249-147-20-132-149-121-193 11-43 56-117 57-61 1 45 11 53 23 57 3-7 26-26 30-81Z"/>
</svg>