<svg xmlns="http://www.w3.org/2000/svg" fill="none" viewBox="0 0 304 230">
  <defs>
    <radialGradient id="b" cx="0" cy="0" r="1" gradientTransform="matrix(-113.4579 47.29303 -78.13739 -187.45475 243 39)" gradientUnits="userSpaceOnUse">
      <stop stop-color="#F12711"/>
      <stop offset="1" stop-color="#F5AF19"/>
    </radialGradient>
    <linearGradient id="c" x1="152" x2="152" y1="159" y2="228" gradientUnits="userSpaceOnUse">
      <stop stop-color="#F12711"/>
      <stop offset="1" stop-color="#F5AF19"/>
    </linearGradient>
  </defs>
  <g>
    <path fill="#fff" fill-rule="evenodd" d="M147.75 12.839a2 2 0 0 0-2-2H75a2 2 0 0 0-2 2v84.035a2 2 0 0 0 .69 1.511l70.75 61.327c1.295 1.122 3.31.202 3.31-1.512V12.839Zm-55.583 24.68c5.293 0 9.583-3.733 9.583-8.338 0-4.605-4.29-8.337-9.583-8.337s-9.584 3.732-9.584 8.337c0 4.605 4.291 8.338 9.584 8.338Z" clip-rule="evenodd"/>
    <path fill="url(#b)" d="M231.573 83.977c.845.807 1.268 1.21 1.426 1.68.138.413.138.859 0 1.272-.158.47-.581.873-1.426 1.68l-70.508 67.256c-1.704 1.626-2.556 2.439-3.285 2.484a2.003 2.003 0 0 1-1.654-.708c-.47-.558-.47-1.736-.47-4.091V19.036c0-2.355 0-3.533.47-4.091a2 2 0 0 1 1.654-.708c.729.045 1.581.858 3.285 2.483l70.508 67.257Z"/>
  </g>
  <path fill="url(#c)" d="M22.968 229.864c-6.384 0-11.4-2.088-15.048-6.264-3.648-4.176-5.472-10.608-5.472-19.296 0-8.736 1.824-15.168 5.472-19.296 3.648-4.176 8.664-6.264 15.048-6.264s11.4 2.088 15.048 6.264c3.648 4.128 5.472 10.56 5.472 19.296 0 8.688-1.824 15.12-5.472 19.296-3.648 4.176-8.664 6.264-15.048 6.264Zm0-7.92c3.696 0 6.456-1.392 8.28-4.176 1.824-2.832 2.736-6.72 2.736-11.664v-3.6c0-4.944-.912-8.808-2.736-11.592-1.824-2.832-4.584-4.248-8.28-4.248-3.648 0-6.408 1.416-8.28 4.248-1.824 2.784-2.736 6.648-2.736 11.592v3.6c0 4.944.912 8.832 2.736 11.664 1.872 2.784 4.632 4.176 8.28 4.176ZM50.234 229v-49.392H79.25v8.208h-19.8v12.456h16.92v8.208H59.45V229h-9.216Zm36.07 0v-49.392h29.016v8.208h-19.8v12.456h16.92v8.208H95.52V229h-9.216Z"/>
  <path fill="#fff" d="M122.375 229v-49.392h17.64c3.408 0 6.264.648 8.568 1.944 2.304 1.248 4.032 3 5.184 5.256 1.152 2.208 1.728 4.752 1.728 7.632 0 3.072-.648 5.784-1.944 8.136a13.904 13.904 0 0 1-5.4 5.4c-2.304 1.248-5.016 1.872-8.136 1.872h-8.424V229h-9.216Zm9.216-27.288h7.488c2.256 0 3.96-.648 5.112-1.944 1.2-1.296 1.8-3.072 1.8-5.328 0-2.016-.6-3.624-1.8-4.824-1.2-1.2-2.904-1.8-5.112-1.8h-7.488v13.896ZM161.75 229v-49.392h20.664c4.992 0 8.76 1.344 11.304 4.032 2.544 2.64 3.816 6 3.816 10.08 0 2.976-.744 5.568-2.232 7.776-1.488 2.208-3.504 3.84-6.048 4.896L198.758 229H188.75l-8.208-20.592h-9.576V229h-9.216Zm9.216-28.728h10.152c2.256 0 3.888-.576 4.896-1.728 1.056-1.152 1.584-2.76 1.584-4.824 0-1.824-.504-3.264-1.512-4.32-.96-1.056-2.496-1.584-4.608-1.584h-10.512v12.456ZM203.639 229v-49.392h9.216V229h-9.216Zm34.887.864c-6.192 0-11.016-2.088-14.472-6.264-3.456-4.176-5.184-10.608-5.184-19.296 0-8.736 1.728-15.168 5.184-19.296 3.456-4.176 8.28-6.264 14.472-6.264 3.456 0 6.552.672 9.288 2.016 2.736 1.344 4.896 3.432 6.48 6.264 1.584 2.832 2.376 6.48 2.376 10.944h-9.432c0-3.84-.816-6.672-2.448-8.496-1.584-1.872-3.672-2.808-6.264-2.808-3.408 0-5.952 1.416-7.632 4.248-1.68 2.784-2.52 6.648-2.52 11.592v3.6c0 4.944.864 8.832 2.592 11.664 1.728 2.784 4.344 4.176 7.848 4.176 2.688 0 4.824-.912 6.408-2.736 1.632-1.872 2.448-4.704 2.448-8.496h9c0 4.32-.792 7.896-2.376 10.728-1.584 2.832-3.744 4.944-6.48 6.336-2.688 1.392-5.784 2.088-9.288 2.088Zm24.825-.864v-49.392h31.464v8.208h-22.248v11.808h19.08v8.208h-19.08v12.96h22.68V229h-31.896Z"/>
</svg>